<svg width="29" height="30" viewBox="0 0 29 30" fill="none" xmlns="http://www.w3.org/2000/svg">
<g filter="url(#filter0_d_221_44)">
<path d="M23.47 8.99999C23.6678 8.99999 23.8611 8.94134 24.0256 8.83146C24.19 8.72158 24.3182 8.5654 24.3939 8.38267C24.4696 8.19995 24.4894 7.99888 24.4508 7.8049C24.4122 7.61092 24.317 7.43274 24.1771 7.29288C24.0373 7.15303 23.8591 7.05779 23.6651 7.0192C23.4711 6.98062 23.2701 7.00042 23.0873 7.07611C22.9046 7.1518 22.7484 7.27997 22.6386 7.44442C22.5287 7.60887 22.47 7.80221 22.47 7.99999C22.47 8.26521 22.5754 8.51956 22.7629 8.7071C22.9505 8.89463 23.2048 8.99999 23.47 8.99999ZM20.47 8.99999C20.6678 8.99999 20.8611 8.94134 21.0256 8.83146C21.19 8.72158 21.3182 8.5654 21.3939 8.38267C21.4696 8.19995 21.4894 7.99888 21.4508 7.8049C21.4122 7.61092 21.317 7.43274 21.1771 7.29288C21.0373 7.15303 20.8591 7.05779 20.6651 7.0192C20.4711 6.98062 20.2701 7.00042 20.0873 7.07611C19.9046 7.1518 19.7484 7.27997 19.6386 7.44442C19.5287 7.60887 19.47 7.80221 19.47 7.99999C19.47 8.26521 19.5754 8.51956 19.7629 8.7071C19.9505 8.89463 20.2048 8.99999 20.47 8.99999ZM17.47 8.99999C17.6678 8.99999 17.8611 8.94134 18.0256 8.83146C18.19 8.72158 18.3182 8.5654 18.3939 8.38267C18.4696 8.19995 18.4894 7.99888 18.4508 7.8049C18.4122 7.61092 18.317 7.43274 18.1771 7.29288C18.0373 7.15303 17.8591 7.05779 17.6651 7.0192C17.4711 6.98062 17.2701 7.00042 17.0873 7.07611C16.9046 7.1518 16.7484 7.27997 16.6386 7.44442C16.5287 7.60887 16.47 7.80221 16.47 7.99999C16.47 8.13131 16.4959 8.26135 16.5461 8.38267C16.5964 8.504 16.6701 8.61424 16.7629 8.7071C16.8558 8.79996 16.966 8.87361 17.0873 8.92387C17.2087 8.97412 17.3387 8.99999 17.47 8.99999ZM21.91 13C21.69 13 21.46 12.93 21.24 12.88C20.7945 12.7818 20.3567 12.6515 19.93 12.49C19.4661 12.3212 18.9562 12.33 18.4983 12.5146C18.0405 12.6992 17.6671 13.0466 17.45 13.49L17.23 13.94C16.2545 13.3958 15.3565 12.7231 14.56 11.94C13.7807 11.1439 13.1084 10.2497 12.56 9.27999L13 8.99999C13.4434 8.78291 13.7908 8.40952 13.9754 7.95168C14.16 7.49384 14.1688 6.9839 14 6.51999C13.8412 6.09241 13.711 5.65479 13.61 5.20999C13.56 4.97999 13.52 4.75999 13.49 4.52999C13.3686 3.82561 12.9996 3.18773 12.4496 2.73123C11.8996 2.27473 11.2047 2.0296 10.49 2.03999H7.49002C7.06727 2.03944 6.64917 2.12824 6.26314 2.30057C5.87711 2.47291 5.53186 2.72489 5.25002 3.03999C4.96371 3.36249 4.7503 3.74292 4.62432 4.15536C4.49835 4.5678 4.46277 5.00256 4.52002 5.42999C5.04674 9.61703 6.9524 13.5096 9.93642 16.4936C12.9204 19.4776 16.813 21.3833 21 21.91C21.1298 21.9199 21.2602 21.9199 21.39 21.91C22.1857 21.91 22.9487 21.5939 23.5113 21.0313C24.074 20.4687 24.39 19.7056 24.39 18.91V15.91C24.3796 15.2122 24.1263 14.5399 23.6737 14.0087C23.221 13.4776 22.5973 13.1209 21.91 13ZM22.4 19C22.4017 19.1449 22.3718 19.2885 22.3124 19.4208C22.2531 19.553 22.1657 19.6708 22.0563 19.7659C21.9469 19.861 21.8181 19.9312 21.6789 19.9717C21.5397 20.0121 21.3933 20.0217 21.25 20C17.5162 19.5128 14.0471 17.8081 11.38 15.15C8.71502 12.4648 7.01327 8.97343 6.54002 5.21999C6.5183 5.07332 6.52946 4.92366 6.5727 4.78184C6.61594 4.64002 6.69017 4.50959 6.79002 4.39999C6.88262 4.29458 6.99635 4.20983 7.12385 4.15125C7.25134 4.09267 7.38973 4.06158 7.53002 4.05999H10.53C10.7626 4.05482 10.9896 4.13087 11.1722 4.27506C11.3547 4.41925 11.4812 4.62256 11.53 4.84999C11.57 5.12332 11.62 5.39332 11.68 5.65999C11.7955 6.18713 11.9493 6.70517 12.14 7.20999L10.74 7.85999C10.6203 7.91491 10.5126 7.99294 10.4232 8.08959C10.3337 8.18623 10.2642 8.2996 10.2187 8.42318C10.1732 8.54677 10.1525 8.67812 10.1579 8.80971C10.1632 8.9413 10.1946 9.07054 10.25 9.18999C11.6892 12.2727 14.1673 14.7508 17.25 16.19C17.4935 16.29 17.7666 16.29 18.01 16.19C18.2582 16.0976 18.4596 15.9106 18.57 15.67L19.2 14.27C19.717 14.4549 20.2446 14.6085 20.78 14.73C21.04 14.79 21.32 14.84 21.59 14.88C21.8156 14.9308 22.0166 15.0582 22.1588 15.2405C22.301 15.4229 22.3757 15.6488 22.37 15.88L22.4 19Z" fill="white"/>
</g>
<defs>
<filter id="filter0_d_221_44" x="-1" y="0" width="32" height="32" filterUnits="userSpaceOnUse" color-interpolation-filters="sRGB">
<feFlood flood-opacity="0" result="BackgroundImageFix"/>
<feColorMatrix in="SourceAlpha" type="matrix" values="0 0 0 0 0 0 0 0 0 0 0 0 0 0 0 0 0 0 127 0" result="hardAlpha"/>
<feOffset dy="4"/>
<feGaussianBlur stdDeviation="2"/>
<feComposite in2="hardAlpha" operator="out"/>
<feColorMatrix type="matrix" values="0 0 0 0 0 0 0 0 0 0 0 0 0 0 0 0 0 0 0.25 0"/>
<feBlend mode="normal" in2="BackgroundImageFix" result="effect1_dropShadow_221_44"/>
<feBlend mode="normal" in="SourceGraphic" in2="effect1_dropShadow_221_44" result="shape"/>
</filter>
</defs>
</svg>
